<?xml version="1.0" standalone="no"?>
<!DOCTYPE svg PUBLIC "-//W3C//DTD SVG 20010904//EN"
 "http://www.w3.org/TR/2001/REC-SVG-20010904/DTD/svg10.dtd">
<svg version="1.0" xmlns="http://www.w3.org/2000/svg"
 width="512.000000pt" height="512.000000pt" viewBox="0 0 512.000000 512.000000"
 preserveAspectRatio="xMidYMid meet">

<g transform="translate(0.000000,512.000000) scale(0.100000,-0.100000)"
fill="#000000" stroke="none">
<path d="M1000 4323 c0 -10 -16 -150 -35 -311 -19 -162 -35 -298 -35 -303 0
-5 -97 -9 -223 -9 -221 0 -224 0 -245 -23 -32 -34 -30 -89 4 -116 26 -21 37
-21 478 -21 429 0 453 -1 483 -20 87 -53 96 -158 18 -230 l-27 -25 -654 -5
-653 -5 -23 -22 c-31 -31 -30 -89 1 -114 22 -18 50 -19 542 -19 563 0 564 0
607 -55 45 -57 37 -137 -19 -191 l-30 -29 -197 -7 c-108 -3 -300 -7 -425 -7
l-228 -1 -24 -25 c-31 -30 -33 -77 -5 -105 19 -19 33 -20 335 -20 340 0 344
-1 394 -54 34 -36 40 -118 12 -163 -42 -66 -41 -66 -506 -71 -455 -4 -455 -4
-476 -59 -12 -32 4 -79 32 -93 10 -6 150 -10 333 -10 294 0 316 -1 316 -17 0
-10 -9 -94 -20 -187 -22 -181 -20 -208 22 -262 46 -58 78 -64 350 -64 l247 0
12 43 c42 160 202 310 370 347 79 18 220 8 291 -19 32 -12 85 -42 118 -67 92
-67 145 -146 195 -291 3 -10 127 -13 573 -13 l568 0 98 1258 c54 691 100 1284
103 1317 5 58 4 61 -21 73 -21 9 -330 12 -1341 12 -1246 0 -1315 -1 -1315 -17z
m1970 -664 c212 -122 395 -231 408 -242 l22 -20 0 -482 0 -482 -22 -20 c-26
-22 -745 -438 -795 -459 -41 -18 -42 -18 -258 108 -99 58 -276 160 -393 227
-117 68 -217 131 -222 141 -6 12 -10 198 -10 488 0 433 1 471 18 490 9 12 163
105 342 208 179 103 359 207 400 231 51 30 83 42 100 39 14 -2 198 -104 410
-227z"/>
<path d="M2250 3540 c-162 -94 -296 -173 -297 -178 -2 -4 132 -85 297 -180
270 -155 302 -171 323 -161 68 36 564 324 574 333 9 8 -63 54 -287 184 -164
94 -303 172 -307 172 -5 0 -141 -77 -303 -170z"/>
<path d="M1860 2868 l0 -353 296 -170 c162 -93 299 -171 304 -173 6 -2 10 130
10 347 l0 351 -22 14 c-31 19 -538 310 -565 325 l-23 12 0 -353z"/>
<path d="M2933 3043 l-303 -175 0 -350 c0 -329 1 -350 17 -343 10 3 147 81
305 172 l288 166 0 353 c0 195 -1 354 -2 353 -2 0 -139 -79 -305 -176z"/>
<path d="M3800 3777 c0 -8 -36 -472 -80 -1033 -44 -560 -80 -1029 -80 -1042 0
-22 2 -23 86 -20 l85 3 17 50 c101 298 433 431 716 288 102 -52 205 -175 241
-288 l17 -57 88 4 c78 3 92 6 115 28 46 42 55 78 55 210 l0 120 -112 0 c-125
0 -172 14 -218 64 -25 27 -25 30 -25 201 0 171 0 174 25 201 46 50 93 64 218
64 l114 0 -4 138 -4 137 -168 395 c-206 483 -206 483 -258 517 l-42 28 -393 3
c-327 2 -393 0 -393 -11z m664 -309 c20 -31 226 -519 226 -535 0 -29 -43 -33
-360 -33 -202 0 -328 4 -341 10 -18 10 -19 24 -19 283 0 199 3 276 12 285 9 9
76 12 240 12 225 0 228 0 242 -22z"/>
<path d="M4860 2305 l0 -105 100 0 100 0 0 105 0 105 -100 0 -100 0 0 -105z"/>
<path d="M1738 1906 c-100 -36 -167 -97 -211 -193 -33 -72 -31 -198 4 -273 33
-70 99 -136 169 -169 46 -22 69 -26 145 -26 78 0 97 4 147 28 72 35 140 110
168 185 32 84 25 206 -15 280 -38 70 -112 136 -181 161 -63 24 -169 27 -226 7z
m145 -220 c43 -18 67 -46 73 -88 15 -92 -88 -162 -171 -118 -78 42 -72 171 10
206 38 17 49 17 88 0z"/>
<path d="M4183 1900 c-67 -27 -147 -100 -179 -162 -87 -172 -17 -381 155 -465
49 -24 68 -28 146 -28 114 0 173 24 245 101 73 77 94 129 94 234 1 71 -4 94
-26 141 -32 70 -90 129 -160 165 -73 38 -199 44 -275 14z m173 -216 c78 -37
86 -153 15 -199 -72 -46 -167 -2 -177 82 -6 47 11 80 55 110 40 27 61 29 107
7z"/>
<path d="M872 1187 c-32 -34 -30 -89 4 -116 27 -21 29 -21 1151 -21 l1124 0
24 25 c35 34 34 86 -1 114 -27 21 -29 21 -1154 21 l-1127 0 -21 -23z"/>
<path d="M3355 1185 c-39 -38 -27 -102 22 -124 17 -8 222 -11 684 -11 l660 0
24 25 c33 32 34 83 2 113 l-23 22 -673 0 -672 0 -24 -25z"/>
<path d="M384 930 c-28 -11 -54 -48 -54 -76 0 -12 9 -33 21 -48 l20 -26 395 0
c381 0 395 1 414 20 21 21 26 69 10 100 -5 10 -24 23 -41 29 -38 13 -733 14
-765 1z"/>
<path d="M1634 926 c-49 -21 -61 -84 -24 -124 l21 -22 1294 0 1294 0 20 26
c28 35 26 67 -3 101 l-24 28 -1274 2 c-1053 2 -1278 0 -1304 -11z"/>
</g>
</svg>
